<?xml version="1.0" encoding="utf-8"?>
<!-- Generator: Adobe Illustrator 25.2.0, SVG Export Plug-In . SVG Version: 6.00 Build 0)  -->
<svg version="1.1" id="Layer_1" xmlns="http://www.w3.org/2000/svg" xmlns:xlink="http://www.w3.org/1999/xlink" x="0px" y="0px"
	 viewBox="0 0 45.06 47.27" style="enable-background:new 0 0 45.06 47.27;" xml:space="preserve">
<style type="text/css">
	.st0{fill:#184315;}
	.st1{font-family:'Times-Roman';}
	.st2{font-size:10.8851px;}
	.st3{fill:#FBC51A;}
	.st4{opacity:0.81;}
	.st5{clip-path:url(#SVGID_2_);fill:#5DB323;}
	.st6{clip-path:url(#SVGID_4_);fill:#5DB323;}
	.st7{clip-path:url(#SVGID_6_);fill:#5DB323;}
	.st8{clip-path:url(#SVGID_8_);fill:#5DB323;}
	.st9{clip-path:url(#SVGID_10_);fill:#5DB323;}
	.st10{clip-path:url(#SVGID_12_);fill:#5DB323;}
	.st11{clip-path:url(#SVGID_14_);fill:#5DB323;}
	.st12{clip-path:url(#SVGID_16_);fill:#5DB323;}
	.st13{clip-path:url(#SVGID_18_);fill:#5DB323;}
	.st14{clip-path:url(#SVGID_20_);fill:#5DB323;}
	.st15{clip-path:url(#SVGID_22_);fill:#5DB323;}
	.st16{clip-path:url(#SVGID_24_);fill:#5DB323;}
	.st17{clip-path:url(#SVGID_26_);fill:#5DB323;}
	.st18{clip-path:url(#SVGID_28_);fill:#5DB323;}
	.st19{clip-path:url(#SVGID_30_);fill:#5DB323;}
	.st20{clip-path:url(#SVGID_32_);fill:#5DB323;}
	.st21{clip-path:url(#SVGID_34_);fill:#5DB323;}
	.st22{clip-path:url(#SVGID_36_);fill:#5DB323;}
	.st23{clip-path:url(#SVGID_38_);fill:#5DB323;}
	.st24{clip-path:url(#SVGID_40_);fill:#5DB323;}
</style>
<g>
	<text transform="matrix(1.0152 0 0 1 2.8832 40.747)" class="st0 st1 st2">CySuites</text>
</g>
<g>
	<path class="st3" d="M21.3,18.37c0,0,4.52-6.03,9.35-0.22c0,0,0.42,0.46,0,0.98c-0.41,0.52-1.57,1.44-1.57,1.44
		s-2.01,1.83-5.68,0.24c0,0-1.77-1.35-1.99-1.77C21.19,18.63,21.25,18.65,21.3,18.37"/>
	<path class="st3" d="M24.05,21.76c0,0,5.06-0.51,4.38,4.54c0,0-0.04,0.42-0.49,0.45c-0.45,0.03-1.44-0.12-1.44-0.12
		s-1.83-0.16-2.72-2.71c0,0-0.14-1.5-0.03-1.8C23.87,21.83,23.89,21.87,24.05,21.76"/>
	<path class="st3" d="M17.22,22.45c0,0,0.51,5.06-4.54,4.38c0,0-0.42-0.04-0.45-0.49c-0.03-0.45,0.12-1.43,0.12-1.43
		s0.16-1.83,2.71-2.72c0,0,1.5-0.14,1.8-0.03C17.15,22.27,17.11,22.28,17.22,22.45"/>
	<path class="st3" d="M28.78,10.89c0,0,0.51,5.06-4.54,4.38c0,0-0.42-0.04-0.45-0.49c-0.03-0.45,0.12-1.44,0.12-1.44
		s0.16-1.83,2.71-2.72c0,0,1.5-0.14,1.8-0.03C28.71,10.71,28.67,10.73,28.78,10.89"/>
	<path class="st0" d="M32.08,13.88c0,0-0.92,3.13-3.77,1.51c0,0-0.24-0.12-0.15-0.4c0.09-0.27,0.42-0.82,0.42-0.82
		s0.54-1.05,2.27-0.96c0,0,0.92,0.28,1.08,0.42C32.08,13.75,32.05,13.75,32.08,13.88"/>
	<path class="st0" d="M31.94,23.52c0,0-2.87,1.56-3.73-1.6c0,0-0.08-0.26,0.18-0.39c0.26-0.13,0.88-0.29,0.88-0.29
		s1.12-0.36,2.28,0.93c0,0,0.45,0.85,0.47,1.06C32.03,23.44,32.01,23.42,31.94,23.52"/>
	<path class="st0" d="M25.47,30.32c0,0-3.2-0.65-1.82-3.62c0,0,0.1-0.25,0.38-0.18c0.28,0.07,0.86,0.35,0.86,0.35
		s1.09,0.45,1.15,2.18c0,0-0.2,0.94-0.32,1.11C25.6,30.31,25.59,30.28,25.47,30.32"/>
	<path class="st0" d="M15.89,30.45c0,0-1.96-2.62,1.05-3.92c0,0,0.24-0.12,0.41,0.12c0.17,0.24,0.41,0.83,0.41,0.83
		s0.52,1.06-0.59,2.39c0,0-0.78,0.57-0.98,0.61C15.98,30.52,16,30.5,15.89,30.45"/>
	<path class="st0" d="M8.96,23.35c0,0,0.86-3.15,3.73-1.58c0,0,0.24,0.12,0.16,0.4c-0.08,0.28-0.4,0.83-0.4,0.83s-0.52,1.06-2.25,1
		c0,0-0.93-0.26-1.08-0.4C8.96,23.47,8.99,23.47,8.96,23.35"/>
	<path class="st0" d="M8.83,13.95c0,0,2.75-1.77,3.83,1.32c0,0,0.1,0.25-0.15,0.4c-0.25,0.15-0.86,0.35-0.86,0.35
		s-1.09,0.44-2.34-0.76c0,0-0.51-0.82-0.54-1.02C8.75,14.04,8.77,14.06,8.83,13.95"/>
	<path class="st0" d="M15.46,7.13c0,0,3.21,0.59,1.89,3.59c0,0-0.1,0.25-0.38,0.19c-0.28-0.06-0.86-0.33-0.86-0.33
		s-1.1-0.43-1.19-2.16c0,0,0.19-0.95,0.31-1.11C15.34,7.14,15.34,7.17,15.46,7.13"/>
	<path class="st0" d="M25.37,7.24c0,0,1.44,2.93-1.75,3.66c0,0-0.26,0.07-0.38-0.19s-0.25-0.89-0.25-0.89s-0.31-1.14,1.02-2.24
		c0,0,0.87-0.42,1.07-0.42C25.29,7.14,25.27,7.16,25.37,7.24"/>
	<path class="st3" d="M12.7,10.4c0,0,5.06-0.51,4.38,4.54c0,0-0.04,0.42-0.49,0.45c-0.45,0.03-1.44-0.12-1.44-0.12
		s-1.83-0.16-2.72-2.71c0,0-0.14-1.5-0.03-1.8C12.51,10.47,12.53,10.51,12.7,10.4"/>
	<path class="st3" d="M9.99,18.37c0,0,4.52-6.03,9.35-0.22c0,0,0.41,0.46,0,0.98c-0.42,0.52-1.57,1.44-1.57,1.44
		s-2.01,1.83-5.68,0.24c0,0-1.77-1.35-1.99-1.77C9.88,18.63,9.94,18.65,9.99,18.37"/>
	<path class="st3" d="M20.21,17.94c0,0-6.03-4.52-0.22-9.35c0,0,0.46-0.42,0.98,0c0.52,0.41,1.44,1.57,1.44,1.57
		s1.83,2.01,0.24,5.68c0,0-1.35,1.77-1.77,1.99C20.47,18.05,20.49,17.98,20.21,17.94"/>
	<path class="st3" d="M20.21,29.25c0,0-6.03-4.52-0.22-9.35c0,0,0.46-0.41,0.98,0c0.52,0.41,1.44,1.57,1.44,1.57
		s1.83,2.01,0.24,5.68c0,0-1.35,1.77-1.77,1.99C20.47,29.36,20.49,29.29,20.21,29.25"/>
	<path class="st0" d="M21.07,6.97c0,0.42-0.34,0.76-0.76,0.76s-0.76-0.34-0.76-0.76c0-0.42,0.34-0.76,0.76-0.76
		S21.07,6.55,21.07,6.97"/>
	<g class="st4">
		<g>
			<defs>
				<rect id="SVGID_1_" x="18.43" y="6.97" width="0.92" height="0.92"/>
			</defs>
			<clipPath id="SVGID_2_">
				<use xlink:href="#SVGID_1_"  style="overflow:visible;"/>
			</clipPath>
			<path class="st5" d="M19.35,7.43c0,0.25-0.2,0.46-0.46,0.46c-0.25,0-0.46-0.2-0.46-0.46c0-0.25,0.2-0.46,0.46-0.46
				C19.15,6.97,19.35,7.17,19.35,7.43"/>
		</g>
	</g>
	<g class="st4">
		<g>
			<defs>
				<rect id="SVGID_3_" x="21.38" y="6.97" width="0.92" height="0.92"/>
			</defs>
			<clipPath id="SVGID_4_">
				<use xlink:href="#SVGID_3_"  style="overflow:visible;"/>
			</clipPath>
			<path class="st6" d="M22.3,7.43c0,0.25-0.21,0.46-0.46,0.46s-0.46-0.2-0.46-0.46c0-0.25,0.21-0.46,0.46-0.46S22.3,7.17,22.3,7.43
				"/>
		</g>
	</g>
	<g class="st4">
		<g>
			<defs>
				<rect id="SVGID_5_" x="19.93" y="5" width="0.92" height="0.92"/>
			</defs>
			<clipPath id="SVGID_6_">
				<use xlink:href="#SVGID_5_"  style="overflow:visible;"/>
			</clipPath>
			<path class="st7" d="M20.84,5.46c0,0.25-0.21,0.46-0.46,0.46s-0.46-0.2-0.46-0.46c0-0.25,0.21-0.46,0.46-0.46
				S20.84,5.21,20.84,5.46"/>
		</g>
	</g>
	<path class="st0" d="M19.84,30.49c0-0.42,0.34-0.76,0.76-0.76s0.76,0.34,0.76,0.76c0,0.42-0.34,0.76-0.76,0.76
		S19.84,30.91,19.84,30.49"/>
	<g class="st4">
		<g>
			<defs>
				<rect id="SVGID_7_" x="21.56" y="29.57" width="0.92" height="0.92"/>
			</defs>
			<clipPath id="SVGID_8_">
				<use xlink:href="#SVGID_7_"  style="overflow:visible;"/>
			</clipPath>
			<path class="st8" d="M21.56,30.03c0-0.25,0.2-0.46,0.46-0.46c0.25,0,0.46,0.2,0.46,0.46s-0.2,0.46-0.46,0.46
				C21.77,30.49,21.56,30.28,21.56,30.03"/>
		</g>
	</g>
	<g class="st4">
		<g>
			<defs>
				<rect id="SVGID_9_" x="18.61" y="29.57" width="0.92" height="0.92"/>
			</defs>
			<clipPath id="SVGID_10_">
				<use xlink:href="#SVGID_9_"  style="overflow:visible;"/>
			</clipPath>
			<path class="st9" d="M18.61,30.03c0-0.25,0.2-0.46,0.46-0.46c0.25,0,0.46,0.2,0.46,0.46s-0.2,0.46-0.46,0.46
				C18.82,30.49,18.61,30.28,18.61,30.03"/>
		</g>
	</g>
	<g class="st4">
		<g>
			<defs>
				<rect id="SVGID_11_" x="20.07" y="31.54" width="0.92" height="0.92"/>
			</defs>
			<clipPath id="SVGID_12_">
				<use xlink:href="#SVGID_11_"  style="overflow:visible;"/>
			</clipPath>
			<path class="st10" d="M20.07,32c0-0.25,0.2-0.46,0.46-0.46c0.25,0,0.46,0.2,0.46,0.46c0,0.25-0.2,0.46-0.46,0.46
				C20.27,32.46,20.07,32.25,20.07,32"/>
		</g>
	</g>
	<path class="st0" d="M32.34,19.23c-0.42,0-0.76-0.34-0.76-0.76s0.34-0.76,0.76-0.76c0.42,0,0.76,0.34,0.76,0.76
		S32.76,19.23,32.34,19.23"/>
	<g class="st4">
		<g>
			<defs>
				<rect id="SVGID_13_" x="31.42" y="16.59" width="0.92" height="0.92"/>
			</defs>
			<clipPath id="SVGID_14_">
				<use xlink:href="#SVGID_13_"  style="overflow:visible;"/>
			</clipPath>
			<path class="st11" d="M31.88,17.51c-0.25,0-0.46-0.2-0.46-0.46c0-0.25,0.2-0.46,0.46-0.46c0.25,0,0.46,0.2,0.46,0.46
				C32.34,17.31,32.13,17.51,31.88,17.51"/>
		</g>
	</g>
	<g class="st4">
		<g>
			<defs>
				<rect id="SVGID_15_" x="31.42" y="19.54" width="0.92" height="0.92"/>
			</defs>
			<clipPath id="SVGID_16_">
				<use xlink:href="#SVGID_15_"  style="overflow:visible;"/>
			</clipPath>
			<path class="st12" d="M31.88,20.46c-0.25,0-0.46-0.21-0.46-0.46s0.2-0.46,0.46-0.46c0.25,0,0.46,0.2,0.46,0.46
				S32.13,20.46,31.88,20.46"/>
		</g>
	</g>
	<g class="st4">
		<g>
			<defs>
				<rect id="SVGID_17_" x="33.38" y="18.09" width="0.92" height="0.92"/>
			</defs>
			<clipPath id="SVGID_18_">
				<use xlink:href="#SVGID_17_"  style="overflow:visible;"/>
			</clipPath>
			<path class="st13" d="M33.84,19c-0.25,0-0.46-0.2-0.46-0.46c0-0.25,0.21-0.46,0.46-0.46s0.46,0.21,0.46,0.46
				C34.3,18.8,34.09,19,33.84,19"/>
		</g>
	</g>
	<path class="st0" d="M8.77,18.01c0.42,0,0.76,0.34,0.76,0.76s-0.34,0.76-0.76,0.76C8.34,19.53,8,19.19,8,18.77
		S8.34,18.01,8.77,18.01"/>
	<g class="st4">
		<g>
			<defs>
				<rect id="SVGID_19_" x="8.77" y="19.73" width="0.92" height="0.92"/>
			</defs>
			<clipPath id="SVGID_20_">
				<use xlink:href="#SVGID_19_"  style="overflow:visible;"/>
			</clipPath>
			<path class="st14" d="M9.22,19.73c0.25,0,0.46,0.21,0.46,0.46c0,0.25-0.21,0.46-0.46,0.46s-0.46-0.2-0.46-0.46
				C8.77,19.94,8.97,19.73,9.22,19.73"/>
		</g>
	</g>
	<g class="st4">
		<g>
			<defs>
				<rect id="SVGID_21_" x="8.77" y="16.78" width="0.92" height="0.92"/>
			</defs>
			<clipPath id="SVGID_22_">
				<use xlink:href="#SVGID_21_"  style="overflow:visible;"/>
			</clipPath>
			<path class="st15" d="M9.22,16.78c0.25,0,0.46,0.21,0.46,0.46c0,0.25-0.21,0.46-0.46,0.46s-0.46-0.21-0.46-0.46
				C8.77,16.99,8.97,16.78,9.22,16.78"/>
		</g>
	</g>
	<g class="st4">
		<g>
			<defs>
				<rect id="SVGID_23_" x="6.8" y="18.24" width="0.92" height="0.92"/>
			</defs>
			<clipPath id="SVGID_24_">
				<use xlink:href="#SVGID_23_"  style="overflow:visible;"/>
			</clipPath>
			<path class="st16" d="M7.26,18.24c0.25,0,0.46,0.21,0.46,0.46c0,0.25-0.21,0.46-0.46,0.46C7,19.16,6.8,18.95,6.8,18.7
				C6.8,18.45,7,18.24,7.26,18.24"/>
		</g>
	</g>
	<path class="st0" d="M11.85,9.38c0.31,0.23,0.37,0.67,0.14,0.97c-0.23,0.31-0.66,0.37-0.97,0.14c-0.31-0.23-0.37-0.67-0.14-0.97
		C11.11,9.21,11.54,9.15,11.85,9.38"/>
	<g class="st4">
		<g>
			<defs>
				<rect id="SVGID_25_" x="12.87" y="8.57" width="1.34" height="1.34"/>
			</defs>
			<clipPath id="SVGID_26_">
				<use xlink:href="#SVGID_25_"  style="overflow:visible;"/>
			</clipPath>
			<path class="st17" d="M13.94,8.7c0.3,0.22,0.36,0.64,0.13,0.94c-0.22,0.3-0.64,0.36-0.94,0.13c-0.3-0.22-0.36-0.64-0.13-0.94
				C13.22,8.54,13.64,8.48,13.94,8.7"/>
		</g>
	</g>
	<g class="st4">
		<g>
			<defs>
				<rect id="SVGID_27_" x="10.3" y="11.2" width="1.34" height="1.34"/>
			</defs>
			<clipPath id="SVGID_28_">
				<use xlink:href="#SVGID_27_"  style="overflow:visible;"/>
			</clipPath>
			<path class="st18" d="M11.37,11.34c0.3,0.22,0.36,0.64,0.13,0.94s-0.64,0.36-0.94,0.13c-0.3-0.22-0.36-0.64-0.13-0.94
				C10.65,11.18,11.07,11.12,11.37,11.34"/>
		</g>
	</g>
	<path class="st0" d="M29.68,9.98c-0.23,0.31-0.67,0.37-0.97,0.14c-0.31-0.23-0.37-0.67-0.14-0.97c0.23-0.31,0.67-0.37,0.97-0.14
		C29.85,9.24,29.91,9.68,29.68,9.98"/>
	<g class="st4">
		<g>
			<defs>
				<rect id="SVGID_29_" x="29.15" y="11" width="1.34" height="1.34"/>
			</defs>
			<clipPath id="SVGID_30_">
				<use xlink:href="#SVGID_29_"  style="overflow:visible;"/>
			</clipPath>
			<path class="st19" d="M30.36,12.08c-0.22,0.3-0.64,0.36-0.94,0.13c-0.3-0.22-0.36-0.64-0.13-0.94c0.22-0.3,0.64-0.36,0.94-0.13
				C30.52,11.36,30.58,11.78,30.36,12.08"/>
		</g>
	</g>
	<g class="st4">
		<g>
			<defs>
				<rect id="SVGID_31_" x="26.51" y="8.43" width="1.34" height="1.34"/>
			</defs>
			<clipPath id="SVGID_32_">
				<use xlink:href="#SVGID_31_"  style="overflow:visible;"/>
			</clipPath>
			<path class="st20" d="M27.72,9.5c-0.22,0.3-0.64,0.36-0.94,0.13C26.48,9.42,26.42,9,26.65,8.7c0.22-0.3,0.64-0.36,0.94-0.13
				C27.88,8.79,27.94,9.21,27.72,9.5"/>
		</g>
	</g>
	<path class="st0" d="M29.07,27.94c-0.31-0.23-0.37-0.67-0.14-0.97c0.23-0.31,0.67-0.37,0.97-0.14c0.31,0.23,0.37,0.67,0.14,0.97
		C29.81,28.11,29.38,28.17,29.07,27.94"/>
	<g class="st4">
		<g>
			<defs>
				<rect id="SVGID_33_" x="26.71" y="27.41" width="1.34" height="1.34"/>
			</defs>
			<clipPath id="SVGID_34_">
				<use xlink:href="#SVGID_33_"  style="overflow:visible;"/>
			</clipPath>
			<path class="st21" d="M26.98,28.61c-0.3-0.22-0.36-0.64-0.13-0.94c0.22-0.3,0.64-0.36,0.94-0.13c0.3,0.22,0.36,0.64,0.13,0.94
				C27.69,28.78,27.27,28.84,26.98,28.61"/>
		</g>
	</g>
	<g class="st4">
		<g>
			<defs>
				<rect id="SVGID_35_" x="29.28" y="24.77" width="1.34" height="1.34"/>
			</defs>
			<clipPath id="SVGID_36_">
				<use xlink:href="#SVGID_35_"  style="overflow:visible;"/>
			</clipPath>
			<path class="st22" d="M29.55,25.98c-0.3-0.22-0.36-0.64-0.14-0.94c0.22-0.3,0.64-0.36,0.94-0.13c0.3,0.22,0.36,0.64,0.13,0.94
				C30.26,26.14,29.84,26.2,29.55,25.98"/>
		</g>
	</g>
	<path class="st0" d="M11.19,27.29c0.23-0.31,0.67-0.37,0.97-0.14c0.31,0.23,0.37,0.67,0.14,0.97c-0.23,0.31-0.67,0.37-0.97,0.14
		C11.02,28.04,10.96,27.6,11.19,27.29"/>
	<g class="st4">
		<g>
			<defs>
				<rect id="SVGID_37_" x="10.38" y="24.94" width="1.34" height="1.34"/>
			</defs>
			<clipPath id="SVGID_38_">
				<use xlink:href="#SVGID_37_"  style="overflow:visible;"/>
			</clipPath>
			<path class="st23" d="M10.51,25.2c0.22-0.3,0.64-0.36,0.94-0.13c0.3,0.22,0.36,0.64,0.13,0.94c-0.22,0.3-0.64,0.36-0.94,0.13
				C10.35,25.92,10.29,25.5,10.51,25.2"/>
		</g>
	</g>
	<g class="st4">
		<g>
			<defs>
				<rect id="SVGID_39_" x="13.02" y="27.51" width="1.34" height="1.34"/>
			</defs>
			<clipPath id="SVGID_40_">
				<use xlink:href="#SVGID_39_"  style="overflow:visible;"/>
			</clipPath>
			<path class="st24" d="M13.15,27.78c0.22-0.3,0.64-0.36,0.94-0.13c0.3,0.22,0.36,0.64,0.14,0.94c-0.22,0.3-0.64,0.36-0.94,0.13
				C12.99,28.49,12.93,28.07,13.15,27.78"/>
		</g>
	</g>
</g>
</svg>
